<mxfile host="app.diagrams.net" modified="2022-03-20T12:42:27.422Z" agent="5.0 (Windows NT 10.0; Win64; x64) AppleWebKit/537.36 (KHTML, like Gecko) Chrome/99.0.4844.74 Safari/537.36" etag="-Sms6jDRWj02FPTGSUM8" version="17.1.3" type="github">
  <diagram id="-Z51BZjeWC5HCjDxti_Y" name="Page-1">
    <mxGraphModel dx="942" dy="582" grid="1" gridSize="10" guides="1" tooltips="1" connect="1" arrows="1" fold="1" page="1" pageScale="1" pageWidth="827" pageHeight="1169" math="0" shadow="0">
      <root>
        <mxCell id="0" />
        <mxCell id="1" parent="0" />
        <mxCell id="QPVem3teqirs7oD4j9m4-1" value="正方体" style="shape=cube;whiteSpace=wrap;html=1;boundedLbl=1;backgroundOutline=1;darkOpacity=0.05;darkOpacity2=0.1;" vertex="1" parent="1">
          <mxGeometry x="240" y="120" width="100" height="100" as="geometry" />
        </mxCell>
        <mxCell id="QPVem3teqirs7oD4j9m4-2" value="" style="endArrow=classic;html=1;rounded=0;exitX=0;exitY=0;exitDx=100;exitDy=60;exitPerimeter=0;entryX=0;entryY=0.75;entryDx=0;entryDy=0;" edge="1" parent="1" source="QPVem3teqirs7oD4j9m4-1" target="QPVem3teqirs7oD4j9m4-6">
          <mxGeometry width="50" height="50" relative="1" as="geometry">
            <mxPoint x="320" y="230" as="sourcePoint" />
            <mxPoint x="330" y="260" as="targetPoint" />
          </mxGeometry>
        </mxCell>
        <mxCell id="QPVem3teqirs7oD4j9m4-3" value="" style="whiteSpace=wrap;html=1;aspect=fixed;" vertex="1" parent="1">
          <mxGeometry x="540" y="41" width="80" height="80" as="geometry" />
        </mxCell>
        <mxCell id="QPVem3teqirs7oD4j9m4-4" value="展开图" style="whiteSpace=wrap;html=1;aspect=fixed;" vertex="1" parent="1">
          <mxGeometry x="540" y="121" width="80" height="80" as="geometry" />
        </mxCell>
        <mxCell id="QPVem3teqirs7oD4j9m4-5" value="" style="whiteSpace=wrap;html=1;aspect=fixed;" vertex="1" parent="1">
          <mxGeometry x="540" y="201" width="80" height="80" as="geometry" />
        </mxCell>
        <mxCell id="QPVem3teqirs7oD4j9m4-6" value="" style="whiteSpace=wrap;html=1;aspect=fixed;" vertex="1" parent="1">
          <mxGeometry x="460" y="121" width="80" height="80" as="geometry" />
        </mxCell>
        <mxCell id="QPVem3teqirs7oD4j9m4-7" value="" style="whiteSpace=wrap;html=1;aspect=fixed;" vertex="1" parent="1">
          <mxGeometry x="620" y="121" width="80" height="80" as="geometry" />
        </mxCell>
        <mxCell id="QPVem3teqirs7oD4j9m4-8" value="" style="whiteSpace=wrap;html=1;aspect=fixed;" vertex="1" parent="1">
          <mxGeometry x="540" y="281" width="80" height="80" as="geometry" />
        </mxCell>
        <mxCell id="QPVem3teqirs7oD4j9m4-9" value="分解后" style="text;html=1;align=center;verticalAlign=middle;resizable=0;points=[];autosize=1;strokeColor=none;fillColor=none;" vertex="1" parent="1">
          <mxGeometry x="355" y="150" width="50" height="20" as="geometry" />
        </mxCell>
      </root>
    </mxGraphModel>
  </diagram>
</mxfile>
